# xmcd
# Copyright (C) 1995-1998 Ti Kan
#
# Track frame offsets:
#       150
#       10950
#       22950
#       36982
#       48245
#       64525
#       78412
#       99188
#       121619
#       133845
#
# Disc length: 2204 seconds
#
# Revision: 0
# Processed by: cddbd v1.5.2PL0 Copyright (c) Steve Scherf et al.
# Submitted via: CD-Import v1.0
#
DISCID=71089a0a
DTITLE=Herr Bitter - Some People
DYEAR=2009
DGENRE=
TTITLE0=Some People 
TTITLE1=Tonight
TTITLE2=Fire 
TTITLE3=Happy People
TTITLE4=Money
TTITLE5=Small Town
TTITLE6=Spinning Room
TTITLE7=Spy In The Land Of Dead
TTITLE8=Funkhaus
TTITLE9=Intellectual
EXTD=
EXTT0=
EXTT1=
EXTT2=
EXTT3=
EXTT4=
EXTT5=
EXTT6=
EXTT7=
EXTT8=
EXTT9=
PLAYORDER=
